<svg width="34" height="34" viewBox="0 0 34 34" fill="none" xmlns="http://www.w3.org/2000/svg">
<path d="M17 0.749741C8.03984 0.749741 0.75 8.03958 0.75 16.9997C0.75 25.9599 8.03984 33.2497 17 33.2497C25.9602 33.2497 33.25 25.9599 33.25 16.9997C33.25 8.03958 25.9602 0.749741 17 0.749741ZM19.5 24.4997H14.5C14.1685 24.4997 13.8505 24.368 13.6161 24.1336C13.3817 23.8992 13.25 23.5813 13.25 23.2497C13.25 22.9182 13.3817 22.6003 13.6161 22.3659C13.8505 22.1314 14.1685 21.9997 14.5 21.9997H19.5C19.8315 21.9997 20.1495 22.1314 20.3839 22.3659C20.6183 22.6003 20.75 22.9182 20.75 23.2497C20.75 23.5813 20.6183 23.8992 20.3839 24.1336C20.1495 24.368 19.8315 24.4997 19.5 24.4997ZM23.25 19.4997H10.75C10.4185 19.4997 10.1005 19.368 9.86612 19.1336C9.6317 18.8992 9.5 18.5813 9.5 18.2497C9.5 17.9182 9.6317 17.6003 9.86612 17.3659C10.1005 17.1314 10.4185 16.9997 10.75 16.9997H23.25C23.5815 16.9997 23.8995 17.1314 24.1339 17.3659C24.3683 17.6003 24.5 17.9182 24.5 18.2497C24.5 18.5813 24.3683 18.8992 24.1339 19.1336C23.8995 19.368 23.5815 19.4997 23.25 19.4997ZM25.75 14.4997H8.25C7.91848 14.4997 7.60054 14.368 7.36612 14.1336C7.1317 13.8992 7 13.5813 7 13.2497C7 12.9182 7.1317 12.6003 7.36612 12.3659C7.60054 12.1314 7.91848 11.9997 8.25 11.9997H25.75C26.0815 11.9997 26.3995 12.1314 26.6339 12.3659C26.8683 12.6003 27 12.9182 27 13.2497C27 13.5813 26.8683 13.8992 26.6339 14.1336C26.3995 14.368 26.0815 14.4997 25.75 14.4997Z" fill="white"/>
</svg>
