<svg width="26" height="26" viewBox="0 0 26 26" fill="none" xmlns="http://www.w3.org/2000/svg">
<path d="M14.6634 9.80499C14.6634 8.94204 15.363 8.24249 16.2259 8.24249C17.0888 8.24249 17.7884 8.94204 17.7884 9.80499C17.7884 10.6679 17.0888 11.3675 16.2259 11.3675C15.363 11.3675 14.6634 10.6679 14.6634 9.80499Z" fill="#807A7A"/>
<path fill-rule="evenodd" clip-rule="evenodd" d="M7.65042 5.28265C10.9307 4.9975 14.2295 4.9975 17.5097 5.28265L19.0829 5.4194C20.5882 5.55025 21.8076 6.69571 22.0323 8.18987C22.5049 11.3323 22.5049 14.5277 22.0323 17.6701C21.8076 19.1643 20.5882 20.3097 19.0829 20.4406L17.5097 20.5773C14.2295 20.8625 10.9307 20.8625 7.65042 20.5773L6.07726 20.4406C4.57198 20.3097 3.35253 19.1643 3.12784 17.6701C2.6553 14.5277 2.6553 11.3323 3.12784 8.18987C3.35253 6.69571 4.57198 5.55025 6.07726 5.4194L7.65042 5.28265ZM17.3744 6.83928C14.1842 6.56196 10.9759 6.56196 7.78573 6.83928L6.21257 6.97603C5.42681 7.04433 4.79026 7.64227 4.67297 8.42222C4.40471 10.2062 4.29659 12.0081 4.34861 13.8066L8.38181 9.77339C8.53395 9.62125 8.74211 9.53859 8.95718 9.54491C9.17225 9.55123 9.3752 9.64597 9.51815 9.80679L13.3426 14.1093L15.9788 13.2305C16.2737 13.1322 16.5987 13.218 16.8066 13.449L20.4724 17.5221C20.478 17.4942 20.4829 17.4661 20.4872 17.4377C20.9366 14.4494 20.9366 11.4106 20.4872 8.42222C20.3699 7.64227 19.7333 7.04433 18.9476 6.97603L17.3744 6.83928ZM19.4761 18.7508L15.9875 14.8746L13.348 15.7545C13.0515 15.8533 12.7246 15.7659 12.517 15.5324L8.90078 11.4641L4.48027 15.8846C4.53109 16.4035 4.59532 16.9214 4.67297 17.4377C4.79026 18.2177 5.42681 18.8156 6.21257 18.8839L7.78573 19.0207C10.9759 19.298 14.1842 19.298 17.3744 19.0207L18.9476 18.8839C19.1338 18.8678 19.3116 18.8218 19.4761 18.7508Z" fill="#807A7A"/>
</svg>
