<svg width="26" height="26" viewBox="0 0 26 26" fill="none" xmlns="http://www.w3.org/2000/svg">
<path opacity="0.4" fill-rule="evenodd" clip-rule="evenodd" d="M9.39988 5.72327H15.7985V4.23346H9.39988V5.72327ZM7.9443 4.29464V4.30206C7.44481 4.34748 6.95069 4.44668 6.46996 4.59594V4.59038C6.45567 4.59639 6.44222 4.60101 6.42931 4.60545C6.41235 4.61128 6.39634 4.61678 6.38061 4.62468C6.34219 4.63395 6.30466 4.64786 6.26892 4.66547C6.16348 4.69977 6.05804 4.74056 5.95886 4.78228C5.9325 4.79248 5.90614 4.8043 5.87978 4.81612L5.87978 4.81612C5.85342 4.82794 5.82706 4.83976 5.8007 4.84996C5.76452 4.86711 5.72676 4.88588 5.68901 4.90466C5.65126 4.92343 5.61351 4.9422 5.57732 4.95935L5.39861 5.06226C5.36557 5.07911 5.33499 5.09887 5.30378 5.11904C5.28519 5.13105 5.26639 5.1432 5.24671 5.15497C4.97776 5.32833 4.72846 5.53136 4.50329 5.7622L4.48989 5.77611C4.46031 5.81058 4.43086 5.84403 4.40181 5.87703C4.35274 5.93276 4.30481 5.9872 4.25935 6.0431L4.24595 6.05608C3.51504 7.06474 3.14869 8.30795 3.21213 9.56784V9.96741H4.65519V9.56414C4.65519 7.80826 5.21454 6.71523 6.45924 6.15528C6.9346 5.95411 7.43677 5.82988 7.94787 5.78445H7.96128V4.30113L7.9443 4.29464ZM20.9113 6.03754L20.9176 6.05052C21.6476 7.06011 22.0121 8.30424 21.9478 9.56414V9.96742H20.5056V9.55394C20.536 8.81043 20.3868 8.07062 20.0705 7.4022C19.7667 6.83019 19.2806 6.38612 18.6935 6.14508C18.2262 5.94391 17.7312 5.81875 17.2264 5.77425V4.29835C17.7258 4.3447 18.22 4.44297 18.7016 4.59223V4.58482C18.7286 4.5971 18.7493 4.6044 18.7847 4.61692L18.7909 4.61912C18.8074 4.62493 18.8227 4.63075 18.8379 4.6365C18.859 4.64449 18.8798 4.65236 18.9026 4.65991C19.0014 4.69232 19.0938 4.73053 19.1889 4.76983L19.2055 4.77672C19.2494 4.79213 19.2907 4.81124 19.328 4.82845C19.34 4.83403 19.3517 4.83941 19.3628 4.8444C19.4414 4.8787 19.5219 4.91949 19.5862 4.95379C19.6291 4.97606 19.6709 4.99988 19.7101 5.02223C19.7313 5.03431 19.7517 5.04596 19.7712 5.0567C19.8032 5.07438 19.831 5.0933 19.8578 5.11148C19.8773 5.12477 19.8963 5.13767 19.9159 5.1494C20.1858 5.32369 20.4377 5.52765 20.6656 5.75664L20.6736 5.77055C20.7576 5.85491 20.8371 5.94391 20.9113 6.03754Z" fill="#807A7A"/>
<path d="M17.2676 3.26014V6.54298C17.2676 6.95661 16.932 7.29164 16.5176 7.29164C16.1032 7.29164 15.7676 6.95661 15.7676 6.54298V3.26762C15.7639 2.85399 16.0976 2.51616 16.512 2.51335C16.9264 2.51055 17.2648 2.84276 17.2676 3.25639V3.26014Z" fill="#807A7A"/>
<path d="M9.39258 3.27204V6.54677C9.39258 6.96219 9.05655 7.29902 8.64211 7.29902C8.22767 7.29902 7.89258 6.96219 7.89258 6.54677V3.27204C7.89258 2.85662 8.22767 2.52072 8.64211 2.52072C9.05655 2.52072 9.39258 2.85662 9.39258 3.27204Z" fill="#807A7A"/>
<path fill-rule="evenodd" clip-rule="evenodd" d="M3.20508 18.0447V9.96741H21.9551V18.0447C21.9551 21.5671 19.988 23.3466 16.0896 23.3466H9.06166C5.17217 23.3466 3.20508 21.5671 3.20508 18.0447ZM7.43435 14.4579C7.43435 14.9466 7.81883 15.3431 8.29272 15.3431C8.77555 15.3431 9.16003 14.9374 9.15109 14.4487C9.15109 13.96 8.76661 13.5635 8.30166 13.5635H8.29272C7.81883 13.5635 7.43435 13.9692 7.43435 14.4579ZM11.7172 14.4579C11.7172 14.9466 12.1107 15.3431 12.5846 15.3431C13.0585 15.3431 13.4429 14.9466 13.4429 14.4487C13.4429 13.9692 13.0585 13.5727 12.5846 13.5635H12.5756C12.1017 13.5727 11.7172 13.9692 11.7172 14.4579ZM16.8675 15.3431C16.3936 15.3431 16.0091 14.9466 16.0091 14.4579C16.0091 13.9692 16.3846 13.5727 16.8675 13.5727C17.3414 13.5727 17.7258 13.9692 17.7258 14.4579C17.7258 14.9466 17.3414 15.3431 16.8675 15.3431ZM16.8675 19.1236C16.3936 19.1236 16.0091 18.7271 16.0002 18.2384C16.0002 17.7497 16.3846 17.3532 16.8585 17.3532H16.8675C17.3414 17.3532 17.7258 17.7497 17.7258 18.2384C17.7258 18.7271 17.3414 19.1236 16.8675 19.1236ZM12.5846 19.1236C12.1107 19.1236 11.7172 18.7271 11.7172 18.2384C11.7172 17.7497 12.1017 17.3532 12.5756 17.344H12.5846C13.0585 17.3532 13.434 17.7497 13.4429 18.2292C13.4429 18.7271 13.0585 19.1236 12.5846 19.1236ZM8.2927 19.1236C7.81881 19.1236 7.43434 18.7271 7.43434 18.2384C7.42539 17.7497 7.80987 17.344 8.2927 17.344C8.7666 17.344 9.15107 17.7405 9.15107 18.2292C9.15107 18.7179 8.7666 19.1236 8.2927 19.1236Z" fill="#807A7A"/>
</svg>
