<svg width="26" height="26" viewBox="0 0 26 26" fill="none" xmlns="http://www.w3.org/2000/svg">
<path d="M13.4228 4.33624C11.2654 4.33624 9.51652 6.08513 9.51652 8.24249C9.51652 10.3999 11.2654 12.1487 13.4228 12.1487C15.5801 12.1487 17.329 10.3999 17.329 8.24249C17.329 6.08513 15.5801 4.33624 13.4228 4.33624Z" fill="#807A7A"/>
<path d="M9.2561 14.2321C7.09874 14.2321 5.34985 15.981 5.34985 18.1383V19.3761C5.34985 20.1607 5.91848 20.8297 6.69284 20.9562C11.15 21.6838 15.6956 21.6838 20.1527 20.9562C20.9271 20.8297 21.4957 20.1607 21.4957 19.3761V18.1383C21.4957 15.981 19.7468 14.2321 17.5894 14.2321H17.2344C17.0422 14.2321 16.8512 14.2625 16.6685 14.3221L15.7669 14.6165C14.2437 15.1139 12.6018 15.1139 11.0786 14.6165L10.177 14.3221C9.99433 14.2625 9.80335 14.2321 9.61118 14.2321H9.2561Z" fill="#807A7A"/>
</svg>
