<svg width="399" height="192" viewBox="0 0 399 192" fill="none" xmlns="http://www.w3.org/2000/svg">
<rect width="399" height="192" rx="44" fill="#D9D9D9"/>
<rect x="36" y="24" width="138" height="138" fill="#C4C4C4"/>
<line x1="35.6464" y1="161.646" x2="173.646" y2="23.6465" stroke="black"/>
<line x1="36.3536" y1="23.6464" x2="174.354" y2="161.646" stroke="black"/>
<path d="M248.085 61.8182C248.085 65.6534 247.393 68.9678 246.008 71.7614C244.623 74.5549 242.723 76.7093 240.308 78.2244C237.893 79.7396 235.135 80.4972 232.034 80.4972C228.933 80.4972 226.175 79.7396 223.76 78.2244C221.345 76.7093 219.445 74.5549 218.06 71.7614C216.675 68.9678 215.983 65.6534 215.983 61.8182C215.983 57.983 216.675 54.6686 218.06 51.875C219.445 49.0814 221.345 46.9271 223.76 45.4119C226.175 43.8968 228.933 43.1392 232.034 43.1392C235.135 43.1392 237.893 43.8968 240.308 45.4119C242.723 46.9271 244.623 49.0814 246.008 51.875C247.393 54.6686 248.085 57.983 248.085 61.8182ZM243.824 61.8182C243.824 58.6695 243.297 56.0121 242.244 53.8459C241.202 51.6797 239.787 50.0402 238 48.9276C236.224 47.8149 234.236 47.2585 232.034 47.2585C229.832 47.2585 227.838 47.8149 226.05 48.9276C224.275 50.0402 222.86 51.6797 221.807 53.8459C220.765 56.0121 220.244 58.6695 220.244 61.8182C220.244 64.9669 220.765 67.6243 221.807 69.7905C222.86 71.9567 224.275 73.5961 226.05 74.7088C227.838 75.8215 229.832 76.3778 232.034 76.3778C234.236 76.3778 236.224 75.8215 238 74.7088C239.787 73.5961 241.202 71.9567 242.244 69.7905C243.297 67.6243 243.824 64.9669 243.824 61.8182ZM254.921 90.2273V52.7273H258.969V57.0597H259.467C259.774 56.5862 260.201 55.9825 260.745 55.2486C261.301 54.5028 262.094 53.84 263.124 53.2599C264.166 52.6681 265.575 52.3722 267.35 52.3722C269.647 52.3722 271.671 52.9463 273.423 54.0945C275.174 55.2427 276.542 56.8703 277.524 58.9773C278.507 61.0843 278.998 63.5701 278.998 66.4347C278.998 69.3229 278.507 71.8265 277.524 73.9453C276.542 76.0523 275.18 77.6858 273.44 78.8459C271.7 79.9941 269.694 80.5682 267.421 80.5682C265.669 80.5682 264.267 80.2782 263.213 79.6982C262.16 79.1063 261.349 78.4375 260.781 77.6918C260.212 76.9342 259.774 76.3068 259.467 75.8097H259.112V90.2273H254.921ZM259.04 66.3636C259.04 68.4233 259.342 70.2403 259.946 71.8146C260.55 73.3771 261.432 74.6023 262.592 75.4901C263.752 76.366 265.172 76.804 266.853 76.804C268.605 76.804 270.067 76.3423 271.239 75.419C272.422 74.4839 273.31 73.2292 273.902 71.6548C274.506 70.0687 274.808 68.3049 274.808 66.3636C274.808 64.446 274.512 62.7178 273.92 61.179C273.34 59.6283 272.458 58.4032 271.274 57.5036C270.102 56.5921 268.629 56.1364 266.853 56.1364C265.148 56.1364 263.716 56.5684 262.556 57.4325C261.396 58.2848 260.52 59.4804 259.928 61.0192C259.336 62.5462 259.04 64.3277 259.04 66.3636ZM296.825 80.5682C294.197 80.5682 291.93 79.9882 290.024 78.8281C288.13 77.6562 286.668 76.0227 285.638 73.9276C284.621 71.8205 284.112 69.3703 284.112 66.5767C284.112 63.7831 284.621 61.321 285.638 59.1903C286.668 57.0478 288.101 55.3788 289.935 54.1832C291.782 52.9759 293.936 52.3722 296.398 52.3722C297.819 52.3722 299.222 52.6089 300.607 53.0824C301.991 53.5559 303.252 54.3253 304.388 55.3906C305.525 56.4441 306.43 57.8409 307.105 59.581C307.78 61.321 308.117 63.4635 308.117 66.0085V67.7841H287.094V64.1619H303.856C303.856 62.6231 303.548 61.25 302.933 60.0426C302.329 58.8352 301.465 57.8823 300.34 57.1839C299.228 56.4856 297.914 56.1364 296.398 56.1364C294.729 56.1364 293.285 56.5507 292.066 57.3793C290.859 58.196 289.929 59.2614 289.278 60.5753C288.627 61.8892 288.302 63.2978 288.302 64.8011V67.2159C288.302 69.2756 288.657 71.0215 289.367 72.4538C290.089 73.8743 291.089 74.9574 292.368 75.7031C293.646 76.437 295.132 76.804 296.825 76.804C297.925 76.804 298.92 76.6501 299.808 76.3423C300.707 76.0227 301.482 75.5492 302.134 74.9219C302.785 74.2827 303.288 73.4896 303.643 72.5426L307.691 73.679C307.265 75.0521 306.549 76.2595 305.543 77.3011C304.536 78.331 303.294 79.1359 301.814 79.7159C300.334 80.2841 298.671 80.5682 296.825 80.5682ZM318.682 63.5938V80H314.491V52.7273H318.54V56.9886H318.895C319.534 55.6037 320.505 54.491 321.807 53.6506C323.109 52.7983 324.79 52.3722 326.849 52.3722C328.696 52.3722 330.312 52.7509 331.697 53.5085C333.082 54.2543 334.159 55.3906 334.928 56.9176C335.698 58.4328 336.082 60.3504 336.082 62.6705V80H331.892V62.9545C331.892 60.812 331.336 59.143 330.223 57.9474C329.11 56.7401 327.583 56.1364 325.642 56.1364C324.304 56.1364 323.109 56.4264 322.055 57.0064C321.014 57.5864 320.191 58.4328 319.587 59.5455C318.984 60.6581 318.682 62.0076 318.682 63.5938ZM217.403 141V104.636H239.349V108.543H221.807V120.83H238.213V124.736H221.807V137.094H239.634V141H217.403ZM269.019 113.727L258.934 141H254.673L244.587 113.727H249.133L256.661 135.46H256.945L264.474 113.727H269.019ZM285.008 141.568C282.38 141.568 280.114 140.988 278.208 139.828C276.314 138.656 274.852 137.023 273.822 134.928C272.804 132.821 272.295 130.37 272.295 127.577C272.295 124.783 272.804 122.321 273.822 120.19C274.852 118.048 276.284 116.379 278.119 115.183C279.966 113.976 282.12 113.372 284.582 113.372C286.002 113.372 287.405 113.609 288.79 114.082C290.175 114.556 291.436 115.325 292.572 116.391C293.708 117.444 294.614 118.841 295.289 120.581C295.963 122.321 296.301 124.464 296.301 127.009V128.784H275.278V125.162H292.039C292.039 123.623 291.732 122.25 291.116 121.043C290.512 119.835 289.648 118.882 288.524 118.184C287.411 117.486 286.097 117.136 284.582 117.136C282.913 117.136 281.469 117.551 280.25 118.379C279.042 119.196 278.113 120.261 277.462 121.575C276.811 122.889 276.485 124.298 276.485 125.801V128.216C276.485 130.276 276.841 132.022 277.551 133.454C278.273 134.874 279.273 135.957 280.551 136.703C281.83 137.437 283.315 137.804 285.008 137.804C286.109 137.804 287.103 137.65 287.991 137.342C288.891 137.023 289.666 136.549 290.317 135.922C290.968 135.283 291.471 134.49 291.826 133.543L295.875 134.679C295.449 136.052 294.732 137.259 293.726 138.301C292.72 139.331 291.477 140.136 289.998 140.716C288.518 141.284 286.855 141.568 285.008 141.568ZM306.865 124.594V141H302.675V113.727H306.723V117.989H307.078C307.718 116.604 308.688 115.491 309.99 114.651C311.292 113.798 312.973 113.372 315.033 113.372C316.88 113.372 318.495 113.751 319.88 114.509C321.265 115.254 322.342 116.391 323.112 117.918C323.881 119.433 324.266 121.35 324.266 123.67V141H320.076V123.955C320.076 121.812 319.519 120.143 318.407 118.947C317.294 117.74 315.767 117.136 313.826 117.136C312.488 117.136 311.292 117.426 310.239 118.006C309.197 118.586 308.375 119.433 307.771 120.545C307.167 121.658 306.865 123.008 306.865 124.594ZM343.784 113.727V117.278H329.65V113.727H343.784ZM333.77 107.193H337.96V133.188C337.96 134.371 338.132 135.259 338.475 135.851C338.83 136.431 339.28 136.821 339.824 137.023C340.381 137.212 340.967 137.307 341.582 137.307C342.044 137.307 342.423 137.283 342.719 137.236C343.015 137.177 343.251 137.129 343.429 137.094L344.281 140.858C343.997 140.964 343.6 141.071 343.091 141.178C342.582 141.296 341.937 141.355 341.156 141.355C339.972 141.355 338.812 141.101 337.676 140.592C336.551 140.083 335.616 139.307 334.871 138.266C334.137 137.224 333.77 135.91 333.77 134.324V107.193ZM368.917 119.835L365.153 120.901C364.916 120.273 364.567 119.664 364.105 119.072C363.655 118.468 363.04 117.971 362.259 117.58C361.477 117.19 360.477 116.994 359.258 116.994C357.589 116.994 356.198 117.379 355.085 118.148C353.985 118.906 353.434 119.871 353.434 121.043C353.434 122.084 353.813 122.907 354.57 123.511C355.328 124.114 356.512 124.617 358.122 125.02L362.17 126.014C364.608 126.606 366.425 127.512 367.621 128.731C368.816 129.938 369.414 131.495 369.414 133.401C369.414 134.963 368.964 136.36 368.065 137.591C367.177 138.822 365.934 139.793 364.336 140.503C362.738 141.213 360.88 141.568 358.761 141.568C355.979 141.568 353.677 140.964 351.854 139.757C350.031 138.55 348.877 136.786 348.392 134.466L352.369 133.472C352.748 134.939 353.464 136.04 354.517 136.774C355.583 137.508 356.973 137.875 358.69 137.875C360.643 137.875 362.194 137.461 363.342 136.632C364.502 135.792 365.082 134.786 365.082 133.614C365.082 132.667 364.75 131.874 364.088 131.234C363.425 130.583 362.407 130.098 361.034 129.778L356.488 128.713C353.99 128.121 352.156 127.204 350.984 125.961C349.824 124.706 349.244 123.138 349.244 121.256C349.244 119.717 349.676 118.356 350.54 117.172C351.416 115.988 352.606 115.059 354.109 114.384C355.624 113.71 357.34 113.372 359.258 113.372C361.957 113.372 364.076 113.964 365.615 115.148C367.165 116.331 368.266 117.894 368.917 119.835Z" fill="black"/>
</svg>
